<?xml version="1.0" standalone="no"?>
<!DOCTYPE svg PUBLIC "-//W3C//DTD SVG 20010904//EN"
 "http://www.w3.org/TR/2001/REC-SVG-20010904/DTD/svg10.dtd">
<svg version="1.0" xmlns="http://www.w3.org/2000/svg"
 width="536.000000pt" height="536.000000pt" viewBox="0 0 536.000000 536.000000"
 preserveAspectRatio="xMidYMid meet">
<metadata>
Created by potrace 1.14, written by Peter Selinger 2001-2017
</metadata>
<g transform="translate(0.000000,536.000000) scale(0.100000,-0.100000)"
fill="#000000" stroke="none">
<path d="M3235 4842 c-11 -3 -22 -7 -25 -11 -3 -4 -26 -18 -52 -31 -27 -14
-48 -28 -48 -31 0 -4 -12 -10 -27 -14 -15 -3 -30 -10 -33 -14 -5 -7 -68 -45
-155 -92 -22 -12 -43 -27 -47 -33 -4 -6 -8 -7 -8 -2 0 5 -7 3 -15 -4 -20 -17
-95 -59 -117 -67 -10 -3 -18 -9 -18 -13 0 -5 -13 -11 -30 -15 -48 -11 -38 -38
23 -65 28 -13 80 -36 115 -52 74 -33 72 -33 72 -9 0 13 13 24 39 34 22 9 42
21 46 27 3 6 10 8 14 5 5 -2 26 4 47 14 21 11 42 17 46 14 5 -2 8 1 8 8 0 7 3
9 6 6 4 -3 14 -2 23 3 9 4 35 11 57 14 22 4 51 9 64 12 34 7 198 6 211 -2 6
-3 25 -7 42 -9 49 -4 111 -16 117 -24 3 -3 12 -7 20 -9 8 -1 51 -16 95 -34 75
-29 81 -33 83 -61 2 -17 4 -33 6 -35 5 -4 78 28 86 38 3 3 17 11 33 17 l27 13
1 -48 c3 -147 -5 -277 -18 -277 -20 0 -28 -16 -28 -56 0 -39 21 -62 31 -35 9
25 35 27 62 5 24 -19 27 -19 32 -3 4 10 5 27 4 38 -1 12 -3 26 -3 31 -1 6 -11
15 -23 20 -22 10 -23 14 -24 170 0 88 2 165 4 172 2 6 17 17 33 23 29 12 40
40 17 40 -25 1 -55 36 -55 63 0 53 -36 67 -92 37 -14 -7 -27 -8 -40 -1 -10 6
-21 7 -25 4 -3 -3 -6 -2 -6 4 0 5 -24 22 -52 37 -111 56 -203 109 -206 117 -2
5 -10 9 -18 9 -8 0 -31 11 -51 25 -20 13 -40 22 -45 19 -4 -3 -8 0 -8 5 0 6
-7 11 -15 11 -8 0 -15 3 -15 8 0 7 -130 11 -165 4z m696 -275 c-1 -12 -15 -9
-19 4 -3 6 1 10 8 8 6 -3 11 -8 11 -12z m25 -62 c12 -10 7 -43 -10 -61 -15
-16 -54 4 -58 30 -5 36 39 57 68 31z"/>
<path d="M3310 4492 c0 -4 -19 -7 -42 -7 -24 0 -65 -6 -93 -13 -27 -7 -61 -15
-75 -18 -13 -3 -30 -10 -37 -16 -7 -6 -13 -7 -13 -4 0 4 -10 1 -22 -6 -13 -7
-25 -13 -28 -14 -36 -11 -70 -32 -71 -44 -1 -8 -3 -33 -4 -55 -1 -22 -3 -44
-5 -50 -1 -5 -2 -14 -1 -19 7 -35 8 -95 2 -92 -4 3 -7 -3 -8 -12 -3 -48 -10
-88 -16 -99 -4 -6 -3 -14 2 -18 7 -4 7 -15 1 -30 -5 -14 -6 -25 -2 -25 4 0 9
-10 10 -22 6 -54 7 -63 12 -68 10 -10 30 -50 30 -60 0 -25 112 -138 170 -172
25 -14 47 -26 50 -26 3 -1 12 -3 20 -5 8 -3 29 -9 45 -15 32 -10 151 -8 200 3
58 13 153 65 191 106 71 75 74 79 70 79 -3 0 7 21 20 46 13 25 22 49 19 54 -3
5 -1 10 4 12 8 3 26 117 22 143 0 6 -4 26 -7 45 -3 19 -7 85 -9 145 -4 157 -4
155 -19 155 -8 0 -16 4 -18 10 -1 5 -15 11 -30 12 -16 1 -28 5 -28 9 0 4 -10
10 -22 14 -13 4 -27 9 -33 11 -11 4 -89 23 -120 30 -11 2 -47 7 -80 10 -33 2
-66 7 -72 9 -7 2 -13 1 -13 -3z"/>
<path d="M965 3960 c-11 -5 -17 -9 -13 -9 4 -1 -4 -13 -17 -27 -14 -15 -22
-30 -19 -35 3 -5 0 -9 -6 -9 -6 0 -8 -5 -5 -10 3 -6 -1 -13 -9 -16 -9 -3 -16
-12 -16 -20 0 -8 -5 -14 -12 -14 -6 0 -8 -3 -5 -6 6 -6 -15 -41 -58 -94 -29
-36 -168 -170 -173 -166 -2 2 -15 -7 -29 -20 -14 -13 -29 -21 -33 -19 -5 3
-10 2 -12 -2 -11 -27 -242 -108 -300 -106 -10 0 -18 -3 -18 -7 0 -4 -8 -7 -17
-7 -29 0 -63 -15 -57 -24 3 -5 1 -9 -5 -9 -6 0 -5 -11 2 -29 6 -16 18 -29 26
-29 57 0 110 -34 112 -71 0 -9 2 -329 5 -711 2 -382 6 -717 8 -745 6 -53 13
-98 16 -102 2 -2 3 -7 4 -11 2 -16 51 -107 66 -123 8 -8 27 -29 41 -45 14 -16
36 -36 49 -44 12 -8 28 -21 35 -27 18 -17 134 -71 165 -77 14 -2 32 -7 40 -10
62 -22 237 -27 323 -8 34 7 70 14 80 14 9 1 17 6 17 10 0 4 8 8 18 8 10 0 22
3 26 7 3 4 13 8 20 9 25 3 106 56 121 77 14 19 13 23 -5 41 -19 20 -20 20 -70
-4 -51 -24 -122 -29 -128 -10 -2 6 -7 8 -11 5 -5 -2 -17 6 -29 18 -47 51 -47
52 -47 913 0 534 -3 811 -10 816 -6 5 -6 8 2 8 6 0 10 9 8 19 -4 20 15 43 31
40 5 -1 11 -1 14 0 3 1 57 3 120 4 l115 2 -2 25 c-2 22 -8 57 -13 70 -4 8 -7
24 -8 39 -2 13 -45 12 -112 -3 -62 -15 -87 -19 -114 -20 l-29 -1 -1 265 c-1
146 -5 271 -9 278 -9 14 -42 15 -72 2z"/>
<path d="M2221 3950 c-13 -11 -20 -20 -16 -20 3 0 -2 -12 -12 -28 -30 -45 -43
-66 -50 -82 -4 -8 -12 -20 -17 -26 -6 -7 -20 -25 -31 -40 -19 -27 -154 -164
-188 -191 -37 -29 -127 -83 -127 -76 0 4 -7 -1 -15 -11 -8 -11 -15 -17 -15
-13 0 3 -20 -2 -45 -13 -25 -11 -45 -17 -45 -13 0 3 -6 0 -13 -6 -8 -6 -17 -8
-20 -4 -4 3 -7 2 -7 -3 0 -6 -10 -10 -22 -11 -13 -1 -33 -3 -44 -6 -12 -3 -39
-8 -60 -11 -57 -9 -75 -16 -69 -27 4 -5 2 -9 -3 -9 -5 0 -7 -11 -5 -24 4 -20
15 -27 56 -37 54 -13 67 -21 85 -55 8 -15 11 -199 12 -610 1 -629 5 -881 15
-929 3 -16 15 -49 25 -72 11 -24 20 -47 20 -53 0 -5 5 -10 10 -10 6 0 10 -7
10 -15 0 -8 4 -15 8 -15 5 0 21 -17 35 -37 15 -21 27 -34 27 -29 0 5 11 -3 25
-18 13 -14 27 -26 30 -26 4 0 19 -8 33 -18 28 -19 125 -62 152 -67 8 -2 16 -4
18 -5 1 -2 11 -4 22 -5 11 -1 21 -3 23 -5 17 -13 230 -21 266 -9 14 4 40 10
56 13 17 2 41 8 55 14 14 5 30 11 35 12 6 1 20 6 33 11 13 5 30 9 38 9 8 0 14
4 14 8 0 8 33 27 53 31 17 3 44 37 41 54 -3 19 -34 54 -43 49 -3 -2 -14 -11
-23 -19 -10 -9 -18 -13 -18 -9 0 4 -7 0 -16 -8 -16 -17 -30 -19 -78 -16 -42 3
-72 25 -100 76 l-24 44 1 845 c2 947 -5 866 79 862 27 -1 50 2 52 8 3 5 5 4 5
-3 1 -7 5 -11 9 -8 5 3 36 6 70 7 36 1 62 7 63 13 2 20 -3 51 -10 56 -3 3 -7
20 -8 39 -2 48 -17 54 -88 37 -11 -2 -20 -5 -20 -6 0 -2 -37 -10 -62 -12 -13
-1 -23 -5 -23 -9 0 -8 -47 -5 -57 5 -4 4 -8 123 -8 264 0 141 -4 263 -8 270
-12 18 -59 14 -86 -8z"/>
<path d="M3637 3446 c-43 -12 -52 -14 -59 -17 -2 0 -12 -2 -23 -3 -11 -2 -38
-6 -60 -10 -67 -13 -108 -18 -157 -19 -27 -1 -48 -4 -48 -7 0 -3 -69 -6 -154
-6 -84 -1 -158 -4 -165 -8 -6 -4 -11 -4 -11 1 0 9 -240 7 -270 -2 -15 -5 -20
-15 -20 -41 0 -30 5 -36 38 -50 20 -8 44 -17 52 -19 35 -8 70 -25 70 -35 0 -6
5 -8 10 -5 6 3 10 2 10 -3 0 -5 11 -15 25 -22 13 -7 22 -17 19 -22 -3 -4 -1
-8 4 -8 15 0 52 -82 56 -125 3 -22 5 -42 6 -45 6 -16 4 -138 -3 -152 -4 -10
-4 -18 0 -18 4 0 8 -36 8 -80 0 -44 -4 -80 -8 -80 -5 0 -5 -5 -1 -12 10 -16
11 -158 2 -158 -4 0 -4 -10 0 -22 5 -13 7 -34 5 -48 -3 -33 -4 -58 -1 -163 2
-49 0 -91 -4 -93 -4 -3 -3 -15 2 -28 5 -15 5 -27 -3 -35 -6 -6 -7 -11 -1 -11
5 0 9 -110 10 -278 1 -152 4 -295 7 -317 11 -75 19 -110 38 -180 11 -38 21
-77 23 -86 18 -73 134 -271 200 -343 20 -21 36 -42 36 -47 0 -5 3 -9 8 -9 4 0
22 -14 41 -30 18 -17 38 -30 42 -30 5 0 9 -7 9 -15 0 -8 5 -15 11 -15 6 0 29
-13 52 -29 23 -16 46 -29 51 -29 5 0 12 -4 15 -9 11 -15 161 -82 221 -98 3 -1
12 -4 20 -8 13 -5 41 -12 90 -24 8 -2 31 -5 50 -8 19 -2 51 -7 70 -10 41 -6
229 -7 238 -1 4 2 30 6 57 10 74 9 96 14 171 38 38 12 71 22 74 23 5 2 56 22
80 32 8 3 18 5 23 5 4 -1 7 2 7 8 0 5 6 10 14 10 17 0 89 40 94 52 2 4 9 8 17
8 7 0 18 7 25 15 7 8 16 13 20 10 5 -3 10 -1 12 3 1 5 29 29 61 55 32 26 55
47 52 47 -3 0 10 15 28 32 38 38 103 129 99 141 -1 4 2 7 6 7 8 0 48 81 97
195 14 31 31 92 39 135 2 14 5 25 6 25 2 0 7 22 16 70 8 47 12 255 5 270 -6
11 -7 15 -16 84 -3 25 -9 49 -13 55 -3 6 -8 22 -10 36 -2 13 -8 30 -14 37 -5
7 -7 17 -3 23 3 5 1 10 -4 10 -6 0 -10 3 -9 8 1 4 -4 21 -11 37 -18 46 -22 60
-21 64 1 2 -2 7 -7 10 -4 3 -13 15 -19 26 -36 68 -50 91 -59 97 -5 4 -6 8 -1
8 5 0 -1 8 -12 19 -12 10 -20 20 -18 22 5 5 -160 168 -172 170 -4 1 -23 11
-42 23 -50 30 -120 63 -155 72 -85 21 -205 20 -280 -4 -22 -6 -37 -10 -59 -15
-8 -2 -22 -9 -32 -17 -9 -8 -19 -14 -21 -12 -8 6 -92 -42 -87 -50 3 -4 1 -8
-4 -8 -13 0 -71 -58 -64 -64 3 -3 0 -6 -6 -6 -7 0 -12 -6 -12 -14 0 -8 -6 -21
-13 -28 -14 -15 -39 -65 -43 -88 -1 -8 -7 -31 -11 -50 -23 -91 5 -212 70 -309
35 -52 91 -111 105 -111 6 0 12 -4 14 -8 4 -11 91 -50 130 -58 42 -9 175 -10
211 -2 61 14 143 67 216 137 120 117 154 140 201 137 30 -2 47 -11 66 -32 30
-35 64 -97 64 -119 0 -8 3 -15 8 -15 4 0 8 -17 9 -37 2 -48 12 -115 18 -121 2
-3 0 -13 -6 -23 -5 -11 -6 -19 -1 -19 5 0 7 -15 5 -32 -2 -18 -6 -58 -7 -88
-2 -30 -5 -56 -6 -57 -3 -4 -4 -8 -20 -80 -7 -35 -17 -63 -22 -63 -5 0 -7 -3
-5 -8 3 -4 -3 -25 -14 -46 -10 -22 -19 -45 -19 -52 0 -6 -7 -17 -15 -24 -8 -7
-15 -19 -15 -27 0 -7 -5 -19 -10 -26 -6 -7 -25 -34 -43 -62 -39 -61 -59 -85
-117 -142 -59 -58 -69 -67 -105 -89 -16 -10 -32 -21 -35 -25 -5 -6 -101 -52
-150 -71 -74 -29 -195 -40 -280 -26 -46 8 -138 45 -157 63 -8 8 -19 15 -25 15
-15 0 -148 142 -142 151 3 5 1 9 -5 9 -11 0 -86 151 -97 195 -4 17 -10 35 -14
40 -12 18 -31 95 -44 180 -4 28 -10 61 -12 75 -12 63 -15 266 -18 1120 -2 503
-4 921 -5 928 -1 14 -2 14 -64 -2z"/>
</g>
</svg>
